<mxfile host="www.draw.io" modified="2019-11-12T14:25:53.531Z" agent="Mozilla/5.0 (Windows NT 10.0; Win64; x64) AppleWebKit/537.36 (KHTML, like Gecko) Chrome/78.0.3904.87 Safari/537.36" etag="RJbN9QO66YrTuLJM3zT-" version="12.2.4" type="github" pages="1">
  <diagram id="e2JxcQoUcObaSHU3J7rH" name="Page-1">
    <mxGraphModel dx="868" dy="401" grid="1" gridSize="10" guides="1" tooltips="1" connect="1" arrows="1" fold="1" page="1" pageScale="1" pageWidth="827" pageHeight="1169" math="0" shadow="0">
      <root>
        <mxCell id="0"/>
        <mxCell id="1" parent="0"/>
        <mxCell id="DveL6Qa_2de0kUzdGoFX-8" value="Oracle WCC" style="verticalLabelPosition=bottom;html=1;verticalAlign=top;strokeWidth=1;align=center;outlineConnect=0;dashed=0;outlineConnect=0;shape=mxgraph.aws3d.oracleDbServer;fillColor=#ffffff;strokeColor=#5E5E5E;aspect=fixed;" parent="1" vertex="1">
          <mxGeometry x="610" y="80" width="123" height="133" as="geometry"/>
        </mxCell>
        <mxCell id="j9nQY68hJNZJPsO3J41X-3" style="edgeStyle=orthogonalEdgeStyle;rounded=0;orthogonalLoop=1;jettySize=auto;html=1;entryX=0;entryY=0.5;entryDx=0;entryDy=0;" edge="1" parent="1" source="DveL6Qa_2de0kUzdGoFX-16" target="j9nQY68hJNZJPsO3J41X-2">
          <mxGeometry relative="1" as="geometry"/>
        </mxCell>
        <mxCell id="DveL6Qa_2de0kUzdGoFX-16" value="IMG" style="shape=image;html=1;verticalAlign=top;verticalLabelPosition=bottom;labelBackgroundColor=#ffffff;imageAspect=0;aspect=fixed;image=https://cdn4.iconfinder.com/data/icons/small-n-flat/24/image-128.png" parent="1" vertex="1">
          <mxGeometry x="70" y="90" width="128" height="128" as="geometry"/>
        </mxCell>
        <mxCell id="j9nQY68hJNZJPsO3J41X-2" value="" style="shape=image;html=1;verticalAlign=top;verticalLabelPosition=bottom;labelBackgroundColor=#ffffff;imageAspect=0;aspect=fixed;image=https://cdn4.iconfinder.com/data/icons/STROKE/multimedia/png/128/video_compress.png" vertex="1" parent="1">
          <mxGeometry x="285" y="90" width="128" height="128" as="geometry"/>
        </mxCell>
      </root>
    </mxGraphModel>
  </diagram>
</mxfile>
